<svg width="24" height="24" viewBox="0 0 24 24" fill="none" xmlns="http://www.w3.org/2000/svg">
<path d="M19.8749 3.74896H4.12491C3.42895 3.74971 2.7617 4.02651 2.26958 4.51863C1.77746 5.01075 1.50066 5.678 1.49992 6.37396V17.624C1.50066 18.3199 1.77746 18.9872 2.26958 19.4793C2.7617 19.9714 3.42895 20.2482 4.12491 20.249H19.8749C20.5709 20.2482 21.2381 19.9714 21.7302 19.4793C22.2224 18.9872 22.4992 18.3199 22.4999 17.624V6.37396C22.4992 5.678 22.2224 5.01075 21.7302 4.51863C21.2381 4.02651 20.5709 3.74971 19.8749 3.74896ZM19.2102 8.09099L12.4602 13.341C12.3286 13.4433 12.1666 13.4989 11.9999 13.4989C11.8332 13.4989 11.6712 13.4433 11.5396 13.341L4.7896 8.09099C4.7103 8.0311 4.64368 7.95605 4.59363 7.87019C4.54359 7.78433 4.5111 7.68939 4.49806 7.59087C4.48503 7.49234 4.4917 7.39222 4.5177 7.2963C4.54369 7.20038 4.58849 7.11058 4.64949 7.03212C4.71049 6.95367 4.78648 6.88812 4.87303 6.83928C4.95958 6.79045 5.05498 6.7593 5.15367 6.74765C5.25237 6.736 5.35239 6.74409 5.44794 6.77143C5.54348 6.79877 5.63264 6.84483 5.71023 6.90693L11.9999 11.7988L18.2896 6.90693C18.4469 6.78816 18.6446 6.73607 18.84 6.76192C19.0353 6.78777 19.2127 6.88949 19.3337 7.04508C19.4546 7.20067 19.5095 7.39762 19.4864 7.59335C19.4633 7.78907 19.3641 7.96784 19.2102 8.09099Z" fill="#A0AEC0"/>
</svg>
