<svg width="32" height="32" viewBox="0 0 32 32" fill="none" xmlns="http://www.w3.org/2000/svg">
<path d="M25.492 31.7492C24.1195 31.7492 22.1916 31.2528 19.3045 29.6398C15.7938 27.671 13.0784 25.8535 9.58664 22.3709C6.22008 19.0064 4.5818 16.8281 2.28891 12.6558C-0.301403 7.94487 0.14016 5.47549 0.633753 4.4201C1.22157 3.1587 2.08922 2.40424 3.21071 1.65541C3.8477 1.23806 4.5218 0.880302 5.22446 0.586664C5.29477 0.55643 5.36016 0.527602 5.41852 0.501586C5.76656 0.34479 6.29391 0.107836 6.96188 0.360961C7.40766 0.528305 7.80563 0.870727 8.4286 1.48596C9.70617 2.74596 11.452 5.55213 12.0961 6.93026C12.5285 7.85908 12.8147 8.47221 12.8154 9.15987C12.8154 9.96494 12.4104 10.5858 11.9189 11.2559C11.8268 11.3817 11.7354 11.502 11.6468 11.6187C11.1117 12.3218 10.9943 12.525 11.0716 12.8878C11.2284 13.617 12.3977 15.7875 14.3194 17.7049C16.241 19.6224 18.349 20.7178 19.0809 20.8739C19.4592 20.9548 19.6666 20.8324 20.3923 20.2784C20.4963 20.1989 20.6032 20.1167 20.715 20.0344C21.4645 19.4768 22.0566 19.0824 22.8427 19.0824H22.8469C23.531 19.0824 24.1167 19.3791 25.087 19.8685C26.3526 20.5069 29.2432 22.2303 30.5109 23.5092C31.1276 24.1308 31.4714 24.5274 31.6394 24.9724C31.8926 25.6425 31.6542 26.1678 31.4988 26.5193C31.4728 26.5777 31.444 26.6417 31.4137 26.7127C31.1178 27.4141 30.7579 28.0868 30.3387 28.7222C29.5912 29.8402 28.834 30.7057 27.5698 31.2942C26.9206 31.6013 26.2101 31.7569 25.492 31.7492Z" fill="#F6AD55"/>
</svg>
