<svg width="32" height="32" viewBox="0 0 32 32" fill="none" xmlns="http://www.w3.org/2000/svg">
<path d="M30.0118 0.249054H1.9895C1.52839 0.24924 1.08622 0.432498 0.760168 0.758551C0.434115 1.0846 0.250858 1.52677 0.250671 1.98788V30.0102C0.250858 30.4713 0.434115 30.9135 0.760168 31.2395C1.08622 31.5656 1.52839 31.7489 1.9895 31.749H16.0007V19.374H12.2354V14.874H16.0007V11.2881C16.0007 7.21983 18.8223 5.00499 22.4568 5.00499C24.1956 5.00499 26.0659 5.13577 26.5004 5.19343V9.44241H23.605C21.6278 9.44241 21.2509 10.3776 21.2509 11.7557V14.874H25.9618L25.3466 19.374H21.2509V31.749H30.0118C30.4729 31.7489 30.9151 31.5656 31.2412 31.2395C31.5672 30.9135 31.7505 30.4713 31.7507 30.0102V1.98788C31.7505 1.52677 31.5672 1.0846 31.2412 0.758551C30.9151 0.432498 30.4729 0.24924 30.0118 0.249054Z" fill="#ED8936"/>
</svg>
