<svg width="36" height="36" viewBox="0 0 36 36" fill="none" xmlns="http://www.w3.org/2000/svg">
<path d="M24.5621 4.87455C26.3011 4.87975 27.9674 5.57287 29.1971 6.80254C30.4268 8.03221 31.1199 9.69851 31.1251 11.4375V24.562C31.1199 26.3011 30.4268 27.9674 29.1971 29.197C27.9674 30.4267 26.3011 31.1198 24.5621 31.125H11.4376C9.6986 31.1198 8.0323 30.4267 6.80263 29.197C5.57296 27.9674 4.87984 26.3011 4.87464 24.562V11.4375C4.87984 9.69851 5.57296 8.03221 6.80263 6.80254C8.0323 5.57287 9.6986 4.87975 11.4376 4.87455H24.5621ZM24.5621 2.24979H11.4376C6.38425 2.24979 2.24988 6.38416 2.24988 11.4375V24.562C2.24988 29.6154 6.38425 33.7498 11.4376 33.7498H24.5621C29.6155 33.7498 33.7499 29.6154 33.7499 24.562V11.4375C33.7499 6.38416 29.6155 2.24979 24.5621 2.24979Z" fill="#ED8936"/>
<path d="M26.5309 11.4372C26.1416 11.4372 25.7609 11.3217 25.4372 11.1054C25.1134 10.8891 24.8611 10.5816 24.7121 10.2219C24.563 9.86211 24.5241 9.46626 24.6 9.08436C24.676 8.70246 24.8635 8.35166 25.1388 8.07633C25.4142 7.80099 25.765 7.61349 26.1469 7.53752C26.5288 7.46156 26.9246 7.50055 27.2844 7.64956C27.6441 7.79857 27.9516 8.05091 28.1679 8.37467C28.3842 8.69843 28.4997 9.07906 28.4997 9.46844C28.5003 9.72714 28.4497 9.9834 28.351 10.2225C28.2522 10.4616 28.1072 10.6789 27.9243 10.8618C27.7414 11.0447 27.5241 11.1897 27.285 11.2885C27.0459 11.3872 26.7896 11.4378 26.5309 11.4372Z" fill="#ED8936"/>
<path d="M17.9998 12.7487C19.0382 12.7487 20.0533 13.0566 20.9167 13.6335C21.7801 14.2104 22.453 15.0304 22.8504 15.9898C23.2478 16.9491 23.3518 18.0048 23.1492 19.0232C22.9466 20.0416 22.4466 20.9771 21.7123 21.7114C20.978 22.4457 20.0425 22.9457 19.0241 23.1483C18.0056 23.3509 16.95 23.2469 15.9906 22.8495C15.0313 22.4521 14.2113 21.7792 13.6344 20.9158C13.0575 20.0524 12.7496 19.0373 12.7496 17.9989C12.7511 16.6069 13.3047 15.2724 14.289 14.2881C15.2733 13.3038 16.6078 12.7502 17.9998 12.7487ZM17.9998 10.1239C16.4423 10.1239 14.9197 10.5858 13.6247 11.4511C12.3297 12.3164 11.3203 13.5463 10.7243 14.9853C10.1282 16.4243 9.97228 18.0077 10.2761 19.5353C10.58 21.0629 11.33 22.4661 12.4314 23.5674C13.5327 24.6687 14.9359 25.4188 16.4635 25.7226C17.9911 26.0265 19.5745 25.8705 21.0135 25.2745C22.4524 24.6784 23.6823 23.6691 24.5476 22.374C25.413 21.079 25.8748 19.5565 25.8748 17.9989C25.8748 15.9104 25.0451 13.9073 23.5683 12.4305C22.0914 10.9536 20.0884 10.1239 17.9998 10.1239Z" fill="#ED8936"/>
</svg>
