<svg width="32" height="32" viewBox="0 0 32 32" fill="none" xmlns="http://www.w3.org/2000/svg">
<path d="M29.2307 0.250977H2.94156C1.50508 0.250977 0.25 1.28457 0.25 2.70418V29.0517C0.25 30.479 1.50508 31.751 2.94156 31.751H29.223C30.6672 31.751 31.75 30.4706 31.75 29.0517V2.70418C31.7584 1.28457 30.6672 0.250977 29.2307 0.250977ZM10.0143 26.5078H5.50164V12.4769H10.0143V26.5078ZM7.91406 10.3436H7.88171C6.4375 10.3436 5.50234 9.26855 5.50234 7.92277C5.50234 6.55238 6.46211 5.50262 7.93867 5.50262C9.41523 5.50262 10.3187 6.54465 10.3511 7.92277C10.3504 9.26855 9.41523 10.3436 7.91406 10.3436ZM26.5068 26.5078H21.9941V18.836C21.9941 16.998 21.3374 15.7422 19.7048 15.7422C18.4574 15.7422 17.7191 16.586 17.3908 17.4079C17.2677 17.7032 17.2347 18.1054 17.2347 18.516V26.5078H12.722V12.4769H17.2347V14.4295C17.8914 13.4943 18.9173 12.1486 21.3044 12.1486C24.2666 12.1486 26.5075 14.1011 26.5075 18.3107L26.5068 26.5078Z" fill="#ED8936"/>
</svg>
