<svg width="50" height="50" viewBox="0 0 50 50" fill="none" xmlns="http://www.w3.org/2000/svg">
<path d="M25 21.873C26.7259 21.873 28.125 20.4739 28.125 18.748C28.125 17.0222 26.7259 15.623 25 15.623C23.2741 15.623 21.875 17.0222 21.875 18.748C21.875 20.4739 23.2741 21.873 25 21.873Z" fill="#F6AD55"/>
<path d="M25.0001 3.12213C16.3849 3.12213 9.37509 9.82623 9.37509 18.0635C9.37509 21.9864 11.1632 27.2032 14.6895 33.5694C17.5216 38.6807 20.7979 43.3028 22.502 45.6026C22.79 45.9956 23.1665 46.3151 23.601 46.5354C24.0355 46.7557 24.5158 46.8705 25.003 46.8705C25.4902 46.8705 25.9705 46.7557 26.405 46.5354C26.8395 46.3151 27.216 45.9956 27.504 45.6026C29.2052 43.3028 32.4845 38.6807 35.3165 33.5694C38.837 27.2051 40.6251 21.9883 40.6251 18.0635C40.6251 9.82623 33.6153 3.12213 25.0001 3.12213ZM25.0001 24.9971C23.764 24.9971 22.5556 24.6306 21.5278 23.9438C20.5 23.2571 19.6989 22.2809 19.2258 21.1389C18.7528 19.9969 18.629 18.7402 18.8702 17.5278C19.1113 16.3154 19.7066 15.2018 20.5807 14.3277C21.4547 13.4536 22.5684 12.8584 23.7808 12.6172C24.9932 12.3761 26.2498 12.4998 27.3919 12.9729C28.5339 13.4459 29.51 14.247 30.1968 15.2748C30.8835 16.3026 31.2501 17.511 31.2501 18.7471C31.2483 20.4042 30.5892 21.9928 29.4175 23.1645C28.2458 24.3363 26.6571 24.9953 25.0001 24.9971Z" fill="#F6AD55"/>
</svg>
