<svg width="32" height="26" viewBox="0 0 32 26" fill="none" xmlns="http://www.w3.org/2000/svg">
<path d="M27.8124 0.623474H4.18738C3.14343 0.624591 2.14256 1.03979 1.40438 1.77797C0.666196 2.51616 0.250995 3.51703 0.249878 4.56097V21.436C0.250995 22.4799 0.666196 23.4808 1.40438 24.219C2.14256 24.9572 3.14343 25.3724 4.18738 25.3735H27.8124C28.8563 25.3724 29.8572 24.9572 30.5954 24.219C31.3336 23.4808 31.7488 22.4799 31.7499 21.436V4.56097C31.7488 3.51703 31.3336 2.51616 30.5954 1.77797C29.8572 1.03979 28.8563 0.624591 27.8124 0.623474ZM26.8153 7.13652L16.6903 15.0115C16.4929 15.165 16.25 15.2483 15.9999 15.2483C15.7498 15.2483 15.5068 15.165 15.3094 15.0115L5.18441 7.13652C5.06545 7.04669 4.96553 6.9341 4.89046 6.80532C4.81538 6.67653 4.76665 6.53411 4.7471 6.38633C4.72754 6.23855 4.73756 6.08835 4.77655 5.94448C4.81554 5.8006 4.88274 5.6659 4.97424 5.54822C5.06574 5.43054 5.17972 5.33221 5.30955 5.25896C5.43938 5.1857 5.58247 5.13898 5.73051 5.12151C5.87855 5.10404 6.02859 5.11616 6.17191 5.15718C6.31523 5.19819 6.44896 5.26728 6.56534 5.36043L15.9999 12.6982L25.4344 5.36043C25.6703 5.18227 25.9669 5.10413 26.2599 5.14291C26.553 5.18169 26.819 5.33427 27.0005 5.56765C27.182 5.80104 27.2643 6.09647 27.2296 6.39006C27.195 6.68364 27.0461 6.9518 26.8153 7.13652Z" fill="#F6AD55"/>
</svg>
