<svg width="24" height="24" viewBox="0 0 24 24" fill="none" xmlns="http://www.w3.org/2000/svg">
<path d="M18.328 22.4994C17.413 22.4994 16.1277 22.1685 14.203 21.0932C11.8625 19.7807 10.0522 18.569 7.72443 16.2472C5.48005 14.0043 4.38787 12.5521 2.85927 9.77053C1.1324 6.62991 1.42677 4.98366 1.75584 4.28007C2.14771 3.43913 2.72615 2.93616 3.4738 2.43694C3.89847 2.15871 4.34787 1.9202 4.8163 1.72444C4.86318 1.70429 4.90677 1.68507 4.94568 1.66772C5.17771 1.56319 5.52927 1.40522 5.97458 1.57397C6.27177 1.68554 6.53708 1.91382 6.9524 2.32397C7.80411 3.16397 8.96802 5.03475 9.39739 5.9535C9.68567 6.57272 9.87646 6.98147 9.87692 7.43991C9.87692 7.97663 9.60693 8.39053 9.27927 8.83725C9.21786 8.92116 9.15692 9.00131 9.09786 9.07913C8.74114 9.54788 8.66286 9.68335 8.71443 9.92522C8.81896 10.4113 9.59849 11.8583 10.8796 13.1366C12.1607 14.4149 13.566 15.1452 14.054 15.2493C14.3061 15.3032 14.4444 15.2216 14.9282 14.8522C14.9975 14.7993 15.0688 14.7444 15.1433 14.6896C15.643 14.3179 16.0377 14.0549 16.5618 14.0549H16.5646C17.0207 14.0549 17.4111 14.2527 18.058 14.579C18.9018 15.0046 20.8288 16.1535 21.674 17.0062C22.085 17.4205 22.3143 17.6849 22.4263 17.9816C22.595 18.4283 22.4361 18.7785 22.3325 19.0129C22.3152 19.0518 22.296 19.0944 22.2758 19.1418C22.0785 19.6094 21.8386 20.0578 21.5591 20.4815C21.0608 21.2268 20.556 21.8038 19.7132 22.1962C19.2804 22.4009 18.8067 22.5046 18.328 22.4994Z" fill="#A0AEC0"/>
</svg>
