<svg width="24" height="24" viewBox="0 0 24 24" fill="none" xmlns="http://www.w3.org/2000/svg">
<path d="M7.12495 12.0002C8.98891 12.0002 10.4999 10.4892 10.4999 8.62524C10.4999 6.76128 8.98891 5.25024 7.12495 5.25024C5.26099 5.25024 3.74995 6.76128 3.74995 8.62524C3.74995 10.4892 5.26099 12.0002 7.12495 12.0002Z" fill="#A0AEC0"/>
<path d="M10.9687 13.8755C9.64866 13.2052 8.19178 12.938 7.12491 12.938C5.03522 12.938 0.749912 14.2196 0.749912 16.7818V18.7505H7.78116V17.9973C7.78116 17.1066 8.15616 16.2137 8.81241 15.4693C9.336 14.8749 10.0691 14.3232 10.9687 13.8755Z" fill="#A0AEC0"/>
<path d="M15.9374 13.5009C13.4967 13.5009 8.62495 15.0084 8.62495 18.0009V20.2509H23.2499V18.0009C23.2499 15.0084 18.3782 13.5009 15.9374 13.5009Z" fill="#A0AEC0"/>
<path d="M15.9374 12.0001C18.2156 12.0001 20.0624 10.1533 20.0624 7.87512C20.0624 5.59695 18.2156 3.75012 15.9374 3.75012C13.6593 3.75012 11.8124 5.59695 11.8124 7.87512C11.8124 10.1533 13.6593 12.0001 15.9374 12.0001Z" fill="#A0AEC0"/>
</svg>
