<svg width="34" height="28" viewBox="0 0 34 28" fill="none" xmlns="http://www.w3.org/2000/svg">
<path d="M33.8749 3.69987C32.6089 4.24996 31.2694 4.61237 29.8987 4.77565C31.3392 3.93217 32.4224 2.59214 32.9453 1.0069C31.5835 1.80326 30.096 2.36201 28.5466 2.65925C27.8942 1.97548 27.1095 1.43152 26.2403 1.06044C25.3711 0.689361 24.4355 0.498906 23.4904 0.500653C19.664 0.500653 16.5675 3.55221 16.5675 7.31393C16.5647 7.83717 16.6247 8.35885 16.746 8.86784C14.0022 8.73921 11.3155 8.03926 8.85768 6.81278C6.39987 5.5863 4.22514 3.86029 2.47261 1.74518C1.85778 2.78167 1.53263 3.96428 1.53113 5.1694C1.53113 7.5319 2.76371 9.62018 4.62488 10.8436C3.52219 10.8174 2.44209 10.5256 1.47628 9.99284V10.0772C1.47628 13.3819 3.86691 16.1311 7.03097 16.7569C6.43597 16.9155 5.82284 16.9959 5.20706 16.996C4.77013 16.9967 4.33418 16.9543 3.90558 16.8694C4.78519 19.5764 7.34527 21.5452 10.3778 21.6014C7.91366 23.5005 4.88828 24.5269 1.77722 24.5194C1.225 24.5186 0.673291 24.4857 0.124878 24.421C3.28977 26.4419 6.96871 27.5109 10.7238 27.5006C23.4757 27.5006 30.4422 17.1155 30.4422 8.10846C30.4422 7.81315 30.4345 7.51784 30.4204 7.22956C31.7726 6.26772 32.9424 5.07245 33.8749 3.69987Z" fill="#ED8936"/>
</svg>
